REM DIRINDEX 1\2,1\3,1\4,1\5
REM DIRNAME folder01,folder02,folder03,folder04,folder05
TITLE ""
FILE "1Q_t_1921-1930.mp3" MP3
  TRACK 01 AUDIO
    TITLE "3:cjc004_6671"
    INDEX 01 00:00:00
  TRACK 02 AUDIO
    TITLE "0:"
    INDEX 01 00:01:05
  TRACK 03 AUDIO
    TITLE "4:cjc004_6672"
    INDEX 01 00:01:30
  TRACK 04 AUDIO
    TITLE "0:"
    INDEX 01 00:02:40
  TRACK 05 AUDIO
    TITLE "5:cjc004_6673"
    INDEX 01 00:02:59
  TRACK 06 AUDIO
    TITLE "0:"
    INDEX 01 00:06:63
  TRACK 07 AUDIO
    TITLE "3:cjc004_6674"
    INDEX 01 00:07:35
  TRACK 08 AUDIO
    TITLE "0:"
    INDEX 01 00:08:62
  TRACK 09 AUDIO
    TITLE "4:cjc004_6675"
    INDEX 01 00:09:16
  TRACK 10 AUDIO
    TITLE "0:"
    INDEX 01 00:10:49
  TRACK 11 AUDIO
    TITLE "5:cjc004_6676"
    INDEX 01 00:10:70
  TRACK 12 AUDIO
    TITLE "0:"
    INDEX 01 00:15:03
  TRACK 13 AUDIO
    TITLE "3:cjc004_6677"
    INDEX 01 00:15:54
  TRACK 14 AUDIO
    TITLE "0:"
    INDEX 01 00:17:04
  TRACK 15 AUDIO
    TITLE "4:cjc004_6678"
    INDEX 01 00:17:27
  TRACK 16 AUDIO
    TITLE "0:"
    INDEX 01 00:18:39
  TRACK 17 AUDIO
    TITLE "5:cjc004_6679"
    INDEX 01 00:18:64
  TRACK 18 AUDIO
    TITLE "0:"
    INDEX 01 00:23:32
  TRACK 19 AUDIO
    TITLE "3:cjc004_6680"
    INDEX 01 00:24:08
  TRACK 20 AUDIO
    TITLE "0:"
    INDEX 01 00:25:46
  TRACK 21 AUDIO
    TITLE "4:cjc004_6681"
    INDEX 01 00:26:01
  TRACK 22 AUDIO
    TITLE "0:"
    INDEX 01 00:27:14
  TRACK 23 AUDIO
    TITLE "5:cjc004_6682"
    INDEX 01 00:27:36
  TRACK 24 AUDIO
    TITLE "0:"
    INDEX 01 00:32:05
  TRACK 25 AUDIO
    TITLE "3:cjc004_6683"
    INDEX 01 00:32:60
  TRACK 26 AUDIO
    TITLE "0:"
    INDEX 01 00:34:18
  TRACK 27 AUDIO
    TITLE "4:cjc004_6684"
    INDEX 01 00:34:45
  TRACK 28 AUDIO
    TITLE "0:"
    INDEX 01 00:36:03
  TRACK 29 AUDIO
    TITLE "5:cjc004_6685"
    INDEX 01 00:36:21
  TRACK 30 AUDIO
    TITLE "0:"
    INDEX 01 00:40:42
  TRACK 31 AUDIO
    TITLE "3:cjc004_6686"
    INDEX 01 00:41:20
  TRACK 32 AUDIO
    TITLE "0:"
    INDEX 01 00:42:41
  TRACK 33 AUDIO
    TITLE "4:cjc004_6687"
    INDEX 01 00:42:66
  TRACK 34 AUDIO
    TITLE "0:"
    INDEX 01 00:44:34
  TRACK 35 AUDIO
    TITLE "5:cjc004_6688"
    INDEX 01 00:44:58
  TRACK 36 AUDIO
    TITLE "0:"
    INDEX 01 00:48:65
  TRACK 37 AUDIO
    TITLE "3:cjc004_6689"
    INDEX 01 00:49:41
  TRACK 38 AUDIO
    TITLE "0:"
    INDEX 01 00:50:56
  TRACK 39 AUDIO
    TITLE "4:cjc004_6690"
    INDEX 01 00:51:18
  TRACK 40 AUDIO
    TITLE "0:"
    INDEX 01 00:52:51
  TRACK 41 AUDIO
    TITLE "5:cjc004_6691"
    INDEX 01 00:53:00
  TRACK 42 AUDIO
    TITLE "0:"
    INDEX 01 00:58:05
  TRACK 43 AUDIO
    TITLE "3:cjc004_6692"
    INDEX 01 00:58:54
  TRACK 44 AUDIO
    TITLE "0:"
    INDEX 01 01:00:02
  TRACK 45 AUDIO
    TITLE "4:cjc004_6693"
    INDEX 01 01:00:23
  TRACK 46 AUDIO
    TITLE "0:"
    INDEX 01 01:01:56
  TRACK 47 AUDIO
    TITLE "5:cjc004_6694"
    INDEX 01 01:02:01
  TRACK 48 AUDIO
    TITLE "0:"
    INDEX 01 01:07:27
  TRACK 49 AUDIO
    TITLE "3:cjc004_6695"
    INDEX 01 01:08:17
  TRACK 50 AUDIO
    TITLE "0:"
    INDEX 01 01:09:30
  TRACK 51 AUDIO
    TITLE "4:cjc004_6696"
    INDEX 01 01:09:54
  TRACK 52 AUDIO
    TITLE "0:"
    INDEX 01 01:10:65
  TRACK 53 AUDIO
    TITLE "5:cjc004_6697"
    INDEX 01 01:11:13
  TRACK 54 AUDIO
    TITLE "0:"
    INDEX 01 01:16:05
  TRACK 55 AUDIO
    TITLE "3:cjc004_6698"
    INDEX 01 01:16:56
  TRACK 56 AUDIO
    TITLE "0:"
    INDEX 01 01:18:02
  TRACK 57 AUDIO
    TITLE "4:cjc004_6699"
    INDEX 01 01:18:29
  TRACK 58 AUDIO
    TITLE "0:"
    INDEX 01 01:19:38
  TRACK 59 AUDIO
    TITLE "5:cjc004_6700"
    INDEX 01 01:19:62
  TRACK 60 AUDIO
    TITLE "0:"
    INDEX 01 01:24:08
